<?xml version="1.0" encoding="UTF-8"?>
<svg id="Layer_1" data-name="Layer 1" xmlns="http://www.w3.org/2000/svg" viewBox="0 0 487.44 465.76">
  <defs>
    <style>
      .cls-1, .cls-2, .cls-3, .cls-4, .cls-5, .cls-6, .cls-7, .cls-8, .cls-9, .cls-10, .cls-11, .cls-12, .cls-13, .cls-14, .cls-15, .cls-16, .cls-17, .cls-18, .cls-19, .cls-20, .cls-21, .cls-22 {
        stroke-width: 0px;
      }

      .cls-1, .cls-3, .cls-4, .cls-5, .cls-6, .cls-7, .cls-8, .cls-9, .cls-22 {
        isolation: isolate;
      }

      .cls-1, .cls-3, .cls-6, .cls-7, .cls-16 {
        fill: #fff;
      }

      .cls-1, .cls-22 {
        opacity: .15;
      }

      .cls-2 {
        fill: none;
      }

      .cls-3 {
        opacity: .6;
      }

      .cls-4 {
        opacity: .4;
      }

      .cls-5, .cls-6, .cls-8, .cls-23 {
        opacity: .2;
      }

      .cls-5, .cls-13 {
        fill: #1a1a1a;
      }

      .cls-7, .cls-9 {
        opacity: .3;
      }

      .cls-24 {
        opacity: .5;
      }

      .cls-11 {
        fill: #2d2d2d;
      }

      .cls-12 {
        fill: #3b3b3b;
      }

      .cls-14 {
        fill: #e0e0e0;
      }

      .cls-15 {
        fill: #333;
      }

      .cls-17 {
        fill: #fafafa;
      }

      .cls-18 {
        fill: #ebebeb;
      }

      .cls-19 {
        fill: #f0f0f0;
      }

      .cls-20 {
        fill: #e6e6e6;
      }

      .cls-21 {
        fill: #f5f5f5;
      }
    </style>
  </defs>
  <g id="freepik--Floor--inject-86">
    <ellipse id="freepik--floor--inject-86" class="cls-17" cx="243.72" cy="325.05" rx="243.72" ry="140.71"/>
  </g>
  <g id="freepik--Window--inject-86">
    <g id="freepik--window--inject-86">
      <g id="freepik--window--inject-86-2">
        <g id="freepik--Frame--inject-86">
          <polygon class="cls-17" points="458.39 207.41 456.13 208.75 379.35 164.42 381.6 163.07 458.39 207.41"/>
          <polygon class="cls-16" points="381.6 163.07 456.13 206.1 456.13 55.16 381.6 12.16 381.6 163.07"/>
          <path class="cls-19" d="m375.09,166.88l85.3,49.25V52.7L375.09,3.45v163.43h0Zm4.26-156l76.78,44.33v153.54l-76.78-44.33s0-153.54,0-153.54Z"/>
          <polygon class="cls-14" points="379.35 164.42 381.6 163.07 381.6 12.16 379.35 10.83 379.35 164.42"/>
          <polygon class="cls-17" points="456.13 153.28 456.13 155.93 379.35 111.6 381.6 110.25 456.13 153.28"/>
          <polygon class="cls-17" points="456.13 100.43 456.13 103.08 379.35 58.75 381.6 57.4 456.13 100.43"/>
          <polygon class="cls-17" points="375.09 3.45 377.38 2.14 462.68 51.39 460.39 52.7 375.09 3.45"/>
          <polygon class="cls-14" points="462.68 51.39 460.39 52.7 460.39 216.13 462.68 214.82 462.68 51.39"/>
          <polygon class="cls-14" points="423.29 36.2 421 34.88 421 188.48 423.29 187.16 423.29 36.2"/>
        </g>
        <polygon class="cls-19" points="416.74 32.43 421 34.88 421 188.48 416.74 186.01 416.74 32.43"/>
        <polygon class="cls-19" points="375.09 56.29 375.09 61.2 460.39 110.45 460.39 105.54 375.09 56.29"/>
        <polygon class="cls-19" points="375.09 109.13 375.09 114.04 460.39 163.29 460.39 158.38 375.09 109.13"/>
        <polygon class="cls-17" points="421 82.8 423.29 81.47 456.13 100.43 456.13 103.08 421 82.8"/>
        <polygon class="cls-17" points="421 135.62 423.29 134.29 456.13 153.25 456.13 155.9 421 135.62"/>
      </g>
    </g>
  </g>
  <g id="freepik--Pictures--inject-86">
    <g id="freepik--Picture--inject-86">
      <g id="freepik--frame--inject-86">
        <polygon class="cls-17" points="41.38 111.25 43.31 112.39 82.75 89.62 80.83 88.47 41.38 111.25"/>
        <polygon class="cls-16" points="80.83 88.47 43.31 110.13 43.31 70.83 80.83 49.19 80.83 88.47"/>
        <path class="cls-18" d="m86.38,41.77l-46.66,26.97v49.93l46.7-27s-.04-49.9-.04-49.9Zm-3.66,47.85l-39.42,22.77v-41.56l39.42-22.77s0,41.56,0,41.56Z"/>
        <polygon class="cls-14" points="82.75 89.62 80.83 88.47 80.83 49.19 82.75 48.06 82.75 89.62"/>
        <polygon class="cls-21" points="86.38 41.77 84.43 40.66 37.73 67.62 39.68 68.74 86.38 41.77"/>
        <polygon class="cls-14" points="37.73 67.62 39.68 68.74 39.68 118.67 37.73 117.56 37.73 67.62"/>
      </g>
      <g id="freepik--Land--inject-86">
        <polygon class="cls-19" points="79.37 87.29 44.77 107.27 44.77 97.28 53.42 77.31 58.81 82.3 56.87 90.67 68.82 65.13 79.37 77.31 79.37 87.29"/>
        <path class="cls-19" d="m58.48,67.66c-1.51.99-2.46,2.63-2.56,4.43,0,1.64,1.15,2.3,2.56,1.48,1.51-.98,2.47-2.63,2.56-4.43,0-1.63-1.14-2.29-2.56-1.48Z"/>
      </g>
    </g>
    <g id="freepik--picture--inject-86">
      <g id="freepik--frame--inject-86-2">
        <polygon class="cls-17" points="108.09 72.73 110.02 73.88 149.46 51.1 147.54 49.95 108.09 72.73"/>
        <polygon class="cls-16" points="147.54 49.95 110.02 71.61 110.02 32.32 147.54 10.67 147.54 49.95"/>
        <path class="cls-18" d="m153.09,3.22l-46.7,27v49.94l46.7-27V3.22Zm-3.63,47.84l-39.44,22.82v-41.56l39.44-22.78s0,41.52,0,41.52Z"/>
        <polygon class="cls-14" points="149.46 51.1 147.54 49.95 147.54 10.67 149.46 9.54 149.46 51.1"/>
        <polygon class="cls-21" points="153.09 3.26 151.14 2.14 104.44 29.11 106.39 30.22 153.09 3.26"/>
        <polygon class="cls-14" points="104.44 29.11 106.39 30.22 106.39 80.16 104.44 79.04 104.44 29.11"/>
      </g>
      <g id="freepik--land--inject-86">
        <polygon class="cls-19" points="146.08 48.78 111.48 68.75 111.48 58.77 120.13 38.79 125.52 43.78 123.58 52.16 135.53 26.61 146.08 38.79 146.08 48.78"/>
        <path class="cls-19" d="m125.19,29.15c-1.51.98-2.46,2.63-2.56,4.43,0,1.63,1.15,2.29,2.56,1.48,1.5-.99,2.44-2.64,2.53-4.44,0-1.63-1.11-2.29-2.53-1.47Z"/>
      </g>
    </g>
  </g>
  <g id="freepik--Shadows--inject-86">
    <path id="freepik--Shadow--inject-86" class="cls-20" d="m307.78,213.6c-10.3,6-10.3,15.59,0,21.53s27,5.95,37.3,0,10.3-15.58,0-21.53-27-5.95-37.3,0Z"/>
    <path id="freepik--shadow--inject-86" class="cls-14" d="m6.88,369.58l68.38,39.43c1.23.63,2.68.63,3.91,0l222.65-128.54c.63-.22.96-.9.75-1.52-.12-.35-.4-.63-.75-.75l-68.37-39.43c-1.23-.62-2.69-.62-3.92,0L6.88,367.32c-.62.21-.96.88-.76,1.5.12.36.4.64.76.76h0Z"/>
    <polygon id="freepik--shadow--inject-86-2" class="cls-14" points="205.06 398.73 167.01 420.69 143.81 407.25 181.84 385.3 205.06 398.73"/>
    <polygon id="freepik--shadow--inject-86-3" class="cls-14" points="248.42 362.39 210.38 384.35 187.18 370.92 225.21 348.96 248.42 362.39"/>
    <polygon id="freepik--shadow--inject-86-4" class="cls-14" points="284.79 363.46 244.73 374.53 222.54 360.47 262.59 349.4 284.79 363.46"/>
  </g>
  <g id="freepik--Lamp--inject-86">
    <g id="freepik--lamp--inject-86">
      <path class="cls-18" d="m347.44,219.71h0c0-3.1-2-6.21-6.14-8.58-8.21-4.74-21.52-4.74-29.73,0-4.1,2.37-6.14,5.48-6.13,8.58h0v2.91h0c.05,3.06,2.1,6.12,6.15,8.46,8.21,4.74,21.52,4.74,29.73,0,4.05-2.34,6.11-5.4,6.15-8.46h0l-.03-2.91h0Z"/>
      <path class="cls-21" d="m311.56,211.13c-8.2,4.74-8.2,12.43,0,17.16s21.52,4.74,29.73,0,8.21-12.42,0-17.16-21.52-4.74-29.73,0Z"/>
      <path class="cls-14" d="m328.72,57.72h-4.53v160.64h0c-.03.44.24.85.65,1,1.01.51,2.19.51,3.2,0,.41-.16.67-.56.64-1h0l.04-160.64h0Z"/>
      <path class="cls-18" d="m353.51,45.99h0l-10.09-37.54h-34.12l-10,37.54h0c-1.82,5,.68,10.33,7.51,14.18,10.91,6.05,28.38,6.05,39.18.05,6.84-3.9,9.33-9.27,7.52-14.23Z"/>
      <path class="cls-21" d="m314.31,16.47c6.69,3.77,17.54,3.77,24.23,0s6.69-9.89,0-13.65-17.54-3.77-24.23,0-6.69,9.88,0,13.65Z"/>
      <path class="cls-14" d="m326.43,16.92c-3.65.08-7.26-.75-10.5-2.42-2.45-1.38-3.8-3.11-3.8-4.86s1.35-3.48,3.8-4.86c6.63-3.23,14.37-3.23,21,0,2.45,1.38,3.8,3.11,3.8,4.86s-1.35,3.48-3.8,4.86c-3.24,1.67-6.85,2.5-10.5,2.42Z"/>
    </g>
  </g>
  <g id="freepik--video-tapes-2--inject-86">
    <g id="freepik--video-tape--inject-86">
      <path class="cls-15" d="m244.12,357.4c-.03-.33-.24-.62-.54-.76l-17.79-10.27-34.31,19.85v4.69l17.78,10.26c.82.42,1.78.42,2.6,0l31.72-18.31c.3-.14.5-.42.54-.75v-4.71h0Z"/>
      <path class="cls-11" d="m191.48,370.87v-4.65l17.78,10.27c.41.22.86.33,1.32.32v4.68c-.46.01-.92-.1-1.32-.32l-17.78-10.3Z"/>
      <polygon class="cls-11" points="210.58 355.15 210.58 355.16 191.48 366.18 210.58 355.15"/>
      <path class="cls-12" d="m225.79,346.37l17.79,10.27c.41.14.64.58.5,1-.08.24-.26.42-.5.5l-31.72,18.31c-.82.42-1.78.42-2.6,0l-17.78-10.23,34.31-19.85h0Z"/>
      <polygon class="cls-10" points="196.01 373.49 196.3 373.66 196.3 368.97 196.01 368.8 196.01 373.49"/>
      <line class="cls-2" x1="195.53" y1="373.22" x2="196.01" y2="373.49"/>
      <polygon class="cls-10" points="230.33 349 228.8 349.88 227.43 349.09 227.14 348.92 226.85 349.09 196.17 366.8 195.88 366.97 196.17 367.14 197.54 367.93 196.01 368.81 196.3 368.98 197.83 368.09 198.12 367.93 197.83 367.76 196.46 366.97 227.14 349.26 228.52 350.05 228.8 350.21 229.08 350.05 229.09 350.05 230.62 349.16 230.33 349"/>
      <path class="cls-16" d="m221.41,356.49l-12.39,7.16c-.14.04-.22.18-.18.32.02.09.09.15.18.18l7.25,4.19c.27.13.6.13.87,0l12.39-7.12c.24-.13.24-.36,0-.5l-7.26-4.19c-.27-.14-.58-.16-.86-.04Z"/>
      <path class="cls-13" d="m222.27,356.49c-.27-.13-.59-.13-.86,0l-12.39,7.16c-.14.04-.22.18-.18.32.02.09.09.15.18.18l1.38.8,13.26-7.66-1.39-.8Z"/>
      <path class="cls-7" d="m210.23,372.32l-1.51.9c-.84.48-3.34-.17-5.58-1.47s-3.38-2.74-2.54-3.22l1.52-.88,4.65-2.68c.27-.13.6-.13.87,0l7.25,4.19c.24.14.24.37,0,.5l-4.66,2.66Z"/>
      <path class="cls-15" d="m214.88,369.64l-1.36.79c-2.22.44-4.53.11-6.54-.92-1.77-1-2.3-2.48-1.59-3.77l1.37-.79c.27-.13.6-.13.87,0l1.62.94,1,.59,1.95,1.13,1,.59,1.63.94c.29.14.29.37.05.5Z"/>
      <path class="cls-16" d="m213.25,368.22c-1.21.49-2.57.43-3.73-.16-1-.58-1.11-1.51-.27-2.15l1,.59,1.95,1.13,1.05.59Z"/>
      <path class="cls-14" d="m212.23,367.61c-.57.17-1.18.12-1.71-.14-.46-.27-.54-.67-.24-1l1.95,1.14h0Z"/>
      <path class="cls-7" d="m228.32,352.5l1.53-.87c.84-.49,3.33.17,5.58,1.46s3.38,2.74,2.54,3.23l-1.52.87-4.65,2.69c-.27.13-.6.13-.87,0l-7.21-4.19c-.24-.14-.24-.37,0-.5l4.6-2.69Z"/>
      <path class="cls-15" d="m223.72,355.22l1.36-.79c2.22-.44,4.53-.11,6.54.92,1.77,1,2.3,2.48,1.59,3.77l-1.37.79c-.27.13-.6.13-.87,0l-1.62-.94-1-.59-2.02-1.16-1-.59-1.63-.94c-.26-.14-.26-.37.02-.47Z"/>
      <path class="cls-16" d="m225.31,356.63c1.21-.49,2.57-.43,3.73.16,1,.58,1.11,1.51.27,2.15l-1-.59-1.98-1.13-1.02-.59Z"/>
      <path class="cls-14" d="m226.33,357.22c.57-.17,1.18-.12,1.71.14.46.27.54.67.24,1l-1.95-1.14h0Z"/>
    </g>
    <g id="freepik--video-tape--inject-86-2">
      <path class="cls-15" d="m281.93,356.45c.12-.34.04-.73-.2-1l-11.84-15.92-36.6,10.3-1.63,4.86,11.84,15.92c.55.66,1.42.97,2.26.78l33.82-9.53c.33-.07.61-.3.73-.61.09-.23,1.52-4.52,1.62-4.8h0Z"/>
      <path class="cls-11" d="m231.66,354.74l1.63-4.86,11.84,15.93c.26.33.61.58,1,.72l-1.63,4.84c-.39-.14-.74-.38-1-.71l-11.84-15.92Z"/>
      <polygon class="cls-11" points="253.67 344.14 253.66 344.15 233.29 349.88 253.67 344.14"/>
      <path class="cls-12" d="m269.89,339.58l11.83,15.92c.35.37.34.96-.03,1.31-.14.13-.31.21-.49.25l-33.82,9.52c-.84.19-1.71-.1-2.26-.77l-11.84-15.93,36.61-10.3h0Z"/>
      <polygon class="cls-10" points="234.68 358.8 234.88 359.07 236.5 354.21 236.31 353.95 234.68 358.8"/>
      <line class="cls-2" x1="234.36" y1="358.38" x2="234.68" y2="358.81"/>
      <polygon class="cls-10" points="272.91 343.65 271.28 344.1 270.36 342.88 270.17 342.62 269.86 342.71 237.14 351.92 236.83 352.01 237.03 352.27 237.94 353.49 236.31 353.95 236.5 354.21 238.13 353.75 238.44 353.67 238.25 353.41 237.34 352.18 270.05 342.97 270.98 344.2 271.16 344.45 271.46 344.36 271.47 344.37 273.1 343.9 272.91 343.65"/>
      <path class="cls-16" d="m262.58,348.76l-13.22,3.72c-.17.03-.28.19-.25.36,0,.06.04.12.08.16l4.83,6.49c.18.22.47.32.75.26l13.22-3.72c.17-.03.28-.19.25-.36-.01-.06-.04-.12-.08-.16l-4.83-6.5c-.18-.22-.47-.31-.75-.25h0Z"/>
      <path class="cls-13" d="m263.33,349.01c-.18-.22-.47-.31-.75-.25l-13.22,3.72c-.17.03-.28.19-.25.36,0,.06.04.12.08.16l.92,1.24,14.14-4-.92-1.23h0Z"/>
      <path class="cls-7" d="m247.41,361.82l-1.62.46c-.9.25-2.84-1.17-4.33-3.18s-2-3.84-1.08-4.1l1.62-.45,5-1.4c.28-.07.57.04.75.26l4.83,6.5c.12.12.12.31,0,.42-.05.05-.11.08-.18.09l-4.99,1.4Z"/>
      <path class="cls-15" d="m252.36,360.42l-1.45.42c-2.09-.23-4.01-1.27-5.34-2.9-1.18-1.58-1.13-3.25-.07-4.38l1.46-.41c.28-.07.57.04.75.26l1.08,1.46.69.91,1.29,1.75.68.92,1.09,1.46c.12.12.12.31,0,.42-.05.05-.11.08-.18.09h0Z"/>
      <path class="cls-16" d="m251.45,358.45c-1.21.14-2.4-.34-3.17-1.28-.54-.55-.54-1.44,0-1.98.14-.14.31-.25.5-.32l.69.91,1.29,1.75.68.92h.01Z"/>
      <path class="cls-14" d="m250.77,357.53c-.55.01-1.08-.23-1.43-.65-.27-.29-.26-.75.03-1.02.03-.03.07-.06.11-.08l1.29,1.75h0Z"/>
      <path class="cls-7" d="m269.95,346.69l1.62-.46c.9-.25,2.84,1.17,4.33,3.18s2,3.84,1.08,4.09l-1.62.46-5,1.39c-.28.07-.57-.03-.75-.26l-4.83-6.49c-.12-.12-.11-.32.01-.44.05-.04.11-.07.17-.08l4.99-1.39Z"/>
      <path class="cls-15" d="m265,348.08l1.45-.41c2.09.22,4.01,1.26,5.34,2.9,1.18,1.58,1.13,3.25.07,4.37l-1.46.41c-.28.07-.57-.03-.75-.26l-1.08-1.45-.69-.92-1.29-1.75-.68-.91-1.09-1.46c-.12-.12-.11-.32.01-.44.05-.04.11-.07.17-.08h0Z"/>
      <path class="cls-16" d="m265.91,350.06c1.2-.15,2.4.33,3.17,1.27.55.55.54,1.45-.01,1.99-.14.14-.31.25-.5.32l-.69-.92-1.29-1.75-.68-.91h0Z"/>
      <path class="cls-14" d="m266.59,350.97c.55,0,1.07.24,1.43.65.27.29.26.75-.03,1.02-.03.03-.07.06-.11.08l-1.29-1.75h0Z"/>
    </g>
    <g id="freepik--video-tape--inject-86-3">
      <polygon class="cls-13" points="182.05 381.4 182.05 387.58 201.13 398.6 201.13 392.42 182.05 381.4"/>
      <polygon class="cls-8" points="182.05 381.4 182.05 387.58 201.13 398.6 201.13 392.42 182.05 381.4"/>
      <path class="cls-13" d="m201.13,398.6l-14.32,8.27c-1.78-.91-3.9-.91-5.68,0-1.57.9-1.57,2.37,0,3.28l-14.32,8.26-19.08-11,34.31-19.81,19.09,11h0Z"/>
      <path class="cls-15" d="m200.37,393.31c-.02-.34-.23-.63-.54-.77l-17.79-10.27-34.32,19.81v4.69l17.78,10.27c.82.42,1.79.42,2.61,0l31.71-18.31c.3-.13.51-.41.54-.74v-4.68h0Z"/>
      <path class="cls-11" d="m147.72,406.77v-4.69l17.79,10.27c.4.22.85.33,1.31.32v4.68c-.46.01-.91-.09-1.32-.31l-17.78-10.27Z"/>
      <polygon class="cls-11" points="166.83 391.05 166.83 391.06 147.73 402.08 166.83 391.05"/>
      <path class="cls-12" d="m182.04,382.27l17.79,10.27c.72.42.72,1.09,0,1.5l-31.71,18.31c-.82.42-1.78.42-2.6,0l-17.8-10.27,34.32-19.81h0Z"/>
      <polygon class="cls-10" points="152.27 409.4 152.56 409.56 152.56 404.87 152.27 404.71 152.27 409.4"/>
      <line class="cls-2" x1="151.79" y1="409.12" x2="152.27" y2="409.4"/>
      <polygon class="cls-10" points="186.58 384.9 185.05 385.78 183.68 384.99 183.39 384.82 183.1 384.99 152.42 402.7 152.13 402.87 152.42 403.04 153.79 403.83 152.26 404.71 152.55 404.88 154.08 403.99 154.37 403.83 154.08 403.66 152.71 402.87 183.39 385.16 184.77 385.95 185.05 386.11 185.33 385.95 185.34 385.95 186.87 385.06 186.58 384.9"/>
      <path class="cls-16" d="m177.66,392.39l-12.39,7.16c-.14.04-.22.18-.18.32.02.09.09.15.18.18l7.26,4.19c.27.14.59.14.86,0l12.4-7.15c.14-.06.2-.21.15-.35-.03-.07-.08-.12-.15-.15l-7.26-4.2c-.27-.13-.6-.13-.87,0Z"/>
      <path class="cls-13" d="m178.53,392.39c-.27-.13-.6-.13-.87,0l-12.39,7.16c-.14.04-.22.18-.18.32.02.09.09.15.18.18l1.39.8,13.26-7.63-1.39-.83Z"/>
      <path class="cls-7" d="m166.49,408.22l-1.52.88c-.84.48-3.34-.17-5.59-1.47s-3.38-2.74-2.54-3.22l1.52-.88,4.65-2.68c.27-.13.6-.13.87,0l7.25,4.19c.24.14.24.37,0,.5l-4.64,2.68Z"/>
      <path class="cls-15" d="m171.13,405.54l-1.36.79c-2.22.44-4.53.11-6.54-.92-1.77-1-2.3-2.48-1.59-3.77l1.37-.79c.27-.13.6-.13.87,0l1.62.94,1,.59,1.95,1.13,1,.59,1.63.94c.29.18.29.37.05.5Z"/>
      <path class="cls-16" d="m169.5,404.1c-1.21.49-2.57.43-3.73-.16-1-.58-1.11-1.51-.27-2.15l1,.59,1.95,1.13,1.05.59Z"/>
      <path class="cls-14" d="m168.48,403.51c-.57.17-1.18.12-1.71-.14-.46-.27-.54-.67-.24-1l1.95,1.14h0Z"/>
      <path class="cls-7" d="m184.58,388.41l1.52-.88c.84-.49,3.34.17,5.58,1.47s3.38,2.73,2.54,3.22l-1.52.88-4.65,2.68c-.27.13-.6.13-.87,0l-7.25-4.19c-.24-.14-.24-.37,0-.5l4.65-2.68Z"/>
      <path class="cls-15" d="m179.93,391.09l1.36-.79c2.22-.44,4.53-.11,6.54.92,1.77,1,2.3,2.48,1.59,3.77l-1.37.79c-.27.13-.6.13-.87,0l-1.62-.94-1-.59-1.95-1.13-1-.59-1.63-.94c-.26-.14-.26-.37-.05-.5Z"/>
      <path class="cls-16" d="m181.56,392.53c1.21-.49,2.57-.43,3.73.16,1,.58,1.11,1.51.27,2.15l-1-.59-1.95-1.13-1.05-.59Z"/>
      <path class="cls-14" d="m182.58,393.12c.57-.17,1.18-.12,1.71.14.46.27.54.67.24,1l-1.95-1.14h0Z"/>
      <path class="cls-13" d="m201.13,392.42l-14.32,8.27c-1.78-.91-3.9-.91-5.68,0-1.57.9-1.57,2.37,0,3.28l-14.32,8.25-19.09-11,34.31-19.81,19.1,11.01Z"/>
      <polygon class="cls-13" points="147.73 401.21 147.73 407.39 166.81 418.41 166.81 412.23 147.73 401.21"/>
      <polygon class="cls-8" points="147.73 401.21 147.73 407.39 166.81 418.41 166.81 412.23 147.73 401.21"/>
      <path class="cls-21" d="m192.12,399.69v2.34c0,.18-.11.35-.26.45l-15.77,9.1c-.15.09-.26,0-.26-.15v-2.33c0-.18.1-.35.26-.45l15.77-9.11c.07-.06.17-.05.23.02.03.04.04.08.03.13h0Z"/>
    </g>
  </g>
  <g id="freepik--Device--inject-86">
    <g id="freepik--tv-stand--inject-86">
      <path class="cls-14" d="m288.27,280.66l-207.79,120c-2.05,1.04-4.48,1.04-6.53,0l-54.71-31.61c-1.93-1.26-3.14-3.36-3.26-5.66v-59.55c.13-2.28,1.34-4.37,3.26-5.62l207.8-120c2.05-1.04,4.47-1.04,6.52,0l54.71,31.58c1.93,1.26,3.14,3.35,3.26,5.65v59.56c-.12,2.3-1.33,4.39-3.26,5.65h0Z"/>
      <path class="cls-8" d="m288.27,280.66l-207.79,120c-2.05,1.04-4.48,1.04-6.53,0l-54.71-31.61c-1.93-1.26-3.14-3.36-3.26-5.66v-59.55c.13-2.28,1.34-4.37,3.26-5.62l207.8-120c2.05-1.04,4.47-1.04,6.52,0l54.71,31.58c1.93,1.26,3.14,3.35,3.26,5.65v59.56c-.12,2.3-1.33,4.39-3.26,5.65h0Z"/>
      <path class="cls-17" d="m224.77,241.39c.52-.45.87-1.06,1-1.73l61.23,35.35c-.12.68-.47,1.3-1,1.74l-204.28,117.93-61.22-35.35,204.27-117.94h0Z"/>
      <path id="freepik--shadow--inject-86-5" class="cls-8" d="m197.86,281.46l33.86,19.55c1.91.97,4.17.97,6.08,0l41.77-24.38c1.68-1,1.68-2.55,0-3.52l-33.85-19.55c-1.91-.97-4.17-.97-6.08,0l-41.77,24.38c-1.69.97-1.69,2.55,0,3.52h0Z"/>
      <path class="cls-13" d="m202.14,277.69v2.88l31.36,18.11c.35.21.73.34,1.13.39.69.1,1.4-.04,2-.39l39.61-22.84v-3l-38.47,22.28c-1.7.86-3.72.86-5.42,0l-30.21-17.43h0Z"/>
      <path class="cls-3" d="m202.14,277.69v2.88l31.36,18.11c.35.21.73.34,1.13.39.69.1,1.4-.04,2-.39l39.61-22.84v-3l-38.47,22.28c-1.7.86-3.72.86-5.42,0l-30.21-17.43h0Z"/>
      <path class="cls-5" d="m202.14,277.69v2.88l31.36,18.11c.35.21.73.34,1.13.39h.44v-3.32c-.95.02-1.88-.2-2.72-.65l-30.21-17.41h0Z"/>
      <path class="cls-12" d="m232.35,295.12l-30.21-17.44c-1.6-1.05-2.61-2.79-2.71-4.7v-5.59c.1-1.91,1.11-3.65,2.71-4.7l38.46-22.17c1.71-.87,3.72-.87,5.43,0l30.21,17.44c1.6,1.05,2.61,2.79,2.71,4.7v5.56c-.11,1.88-1.12,3.59-2.71,4.6l-38.46,22.3c-1.71.87-3.72.87-5.43,0h0Z"/>
      <path class="cls-11" d="m235.06,255.93l-32.92,6.76c-1.6,1.05-2.61,2.79-2.71,4.7v5.59c.1,1.91,1.11,3.65,2.71,4.7l30.21,17.44c.83.45,1.77.67,2.71.65v-39.84h0Z"/>
      <path class="cls-15" d="m202.14,265.83l30.21,17.44c1.71.87,3.72.87,5.43,0l38.46-22.18c1.49-.86,1.49-2.27,0-3.13l-30.21-17.44c-1.71-.87-3.72-.87-5.43,0l-38.46,22.17c-1.5.87-1.5,2.27,0,3.14h0Z"/>
      <path class="cls-17" d="m236.27,260.89c-1.61.93-1.61,2.44,0,3.36,1.83.92,4,.92,5.83,0,1.61-.93,1.61-2.43,0-3.36-1.83-.92-4-.92-5.83,0Z"/>
      <path class="cls-17" d="m271.31,266.9c-.63.41-1.02,1.1-1.06,1.85,0,.69.48,1,1.06.64.63-.41,1.03-1.1,1.06-1.85,0-.68-.47-.97-1.06-.64Z"/>
      <path class="cls-17" d="m271.31,271c-.63.41-1.02,1.1-1.06,1.85,0,.68.48,1,1.06.64.63-.41,1.03-1.1,1.06-1.85,0-.68-.47-.97-1.06-.64Z"/>
      <g id="freepik--Player--inject-86">
        <polygon class="cls-8" points="226.52 306.47 168.69 273.09 93.52 316.49 151.35 349.87 226.52 306.47"/>
        <polygon class="cls-13" points="154.24 343.64 154.24 345.31 168.7 336.96 168.7 335.29 154.24 343.64"/>
        <polygon class="cls-13" points="154.24 343.64 154.24 345.31 152.79 344.47 154.24 343.64"/>
        <polygon class="cls-9" points="154.24 343.64 154.24 345.31 152.79 344.47 154.24 343.64"/>
        <polygon class="cls-13" points="209.17 311.92 209.17 313.59 223.63 305.24 223.63 303.57 209.17 311.92"/>
        <polygon class="cls-13" points="209.18 311.92 209.17 313.59 207.73 312.76 209.18 311.92"/>
        <polygon class="cls-9" points="209.18 311.92 209.17 313.59 207.73 312.76 209.18 311.92"/>
        <polygon class="cls-13" points="151.35 345.31 151.35 328.61 93.52 295.23 93.52 311.92 151.35 345.31"/>
        <polygon class="cls-13" points="151.35 328.61 226.52 285.21 226.52 301.91 151.35 345.31 151.35 328.61"/>
        <polygon class="cls-1" points="151.35 328.61 226.52 285.21 226.52 301.91 151.35 345.31 151.35 328.61"/>
        <polygon class="cls-13" points="226.52 285.21 168.69 251.83 93.52 295.23 151.35 328.61 226.52 285.21"/>
        <polygon class="cls-7" points="226.52 285.21 168.69 251.83 93.52 295.23 151.35 328.61 226.52 285.21"/>
        <polygon class="cls-9" points="141.54 339.64 142.31 340.09 142.31 323.4 141.54 322.95 141.54 339.64"/>
        <polygon class="cls-9" points="102.55 317.14 103.33 317.59 103.33 300.89 102.55 300.44 102.55 317.14"/>
        <g class="cls-24">
          <path class="cls-10" d="m135.03,330.5c-.4-.01-.78-.13-1.12-.34-1.42-.93-2.31-2.47-2.4-4.16-.16-.86.41-1.68,1.26-1.84.47-.09.95.04,1.32.35,1.41.93,2.31,2.47,2.4,4.16.06.65-.23,1.29-.77,1.66-.21.12-.45.18-.69.17h0Zm-2.06-6c-.18,0-.36.04-.52.13-.42.31-.65.82-.59,1.34.09,1.57.91,3,2.23,3.86.52.44,1.29.38,1.73-.14.25-.29.34-.68.27-1.05-.09-1.56-.91-2.99-2.22-3.85-.28-.16-.58-.25-.9-.26v-.03h0Z"/>
        </g>
        <g class="cls-24">
          <path class="cls-10" d="m134.84,327.82c-.04-.59-.35-1.13-.84-1.45-.46-.26-.84,0-.84.49.04.59.35,1.13.84,1.45.46.26.84.05.84-.49Z"/>
        </g>
        <g class="cls-24">
          <path class="cls-10" d="m111.72,314.47c-.03-.59-.34-1.13-.84-1.45-.46-.27-.84-.05-.84.48.03.59.34,1.13.84,1.45.45.27.84.05.84-.48Z"/>
        </g>
        <g class="cls-24">
          <path class="cls-10" d="m111.9,317.15c-.4-.01-.78-.13-1.12-.34-1.41-.93-2.31-2.47-2.4-4.16-.16-.86.41-1.68,1.26-1.84.47-.09.95.04,1.32.35,1.42.93,2.31,2.47,2.4,4.16.07.65-.23,1.28-.77,1.65-.21.12-.45.18-.69.18Zm-2.06-6c-.18,0-.36.05-.52.14-.43.31-.65.82-.59,1.34.09,1.56.92,2.99,2.23,3.85.42.31.98.38,1.46.16.42-.31.64-.82.58-1.34-.08-1.56-.91-3-2.22-3.85-.29-.16-.61-.24-.94-.23,0,0,0-.07,0-.07Z"/>
        </g>
        <path class="cls-15" d="m171.19,321.32l-.43-.25c-.22-.1-.47-.08-.67.06-.58.36-.95.97-1,1.65-.03.24.08.48.28.62l.44.25c.22.11.48.08.67-.07.56-.36.92-.98.95-1.65.04-.23-.06-.46-.24-.61Z"/>
        <path class="cls-13" d="m169.57,323.03c-.03.24.08.48.28.62.22.11.48.08.67-.07.56-.36.92-.98.95-1.65.03-.24-.08-.47-.28-.61-.22-.1-.47-.08-.67.06-.56.37-.91.98-.95,1.65Z"/>
        <path class="cls-15" d="m214.13,296.54l-.44-.25c-.22-.11-.48-.08-.67.07-.58.35-.95.96-1,1.64-.03.24.07.48.27.62l.44.25c.22.1.47.08.67-.06.58-.36.95-.97,1-1.65.03-.24-.07-.48-.27-.62h0Z"/>
        <path class="cls-17" d="m212.5,298.22c-.06.31.14.62.46.68.18.03.36-.01.49-.13.58-.36.95-.97,1-1.65.03-.24-.07-.48-.27-.62-.22-.11-.48-.08-.68.07-.58.36-.95.97-1,1.65h0Z"/>
        <path class="cls-15" d="m171.19,329.13l-.43-.25c-.22-.1-.48-.07-.67.07-.58.35-.96.97-1,1.65-.02.24.08.48.28.62l.44.25c.22.1.48.07.67-.07.56-.36.92-.98.95-1.65.04-.23-.05-.47-.24-.62Z"/>
        <path class="cls-17" d="m169.57,330.85c-.1.3.06.63.37.73.23.08.48,0,.63-.18.56-.36.92-.98.95-1.65.03-.24-.08-.48-.28-.62-.22-.09-.47-.07-.67.07-.58.36-.95.97-1,1.65h0Z"/>
        <path class="cls-15" d="m166.51,326.95l-2-1.14c-1-.47-2.17-.35-3.06.3-2.56,1.67-4.17,4.46-4.34,7.51-.11,1.1.37,2.17,1.27,2.81l2,1.14c1,.47,2.17.35,3.06-.3,2.56-1.67,4.17-4.46,4.34-7.51.13-1.1-.36-2.18-1.27-2.81Z"/>
        <path class="cls-17" d="m159.11,334.76c-.29,1.43.63,2.82,2.06,3.11.81.17,1.65-.06,2.27-.6,2.56-1.67,4.17-4.46,4.34-7.51.13-1.1-.36-2.18-1.27-2.81-1-.46-2.18-.35-3.07.3-2.55,1.67-4.16,4.46-4.33,7.51h0Z"/>
        <path class="cls-13" d="m162.62,335.38c-.02.21.07.41.24.53.19.09.41.06.58-.06.49-.31.8-.84.83-1.42.02-.21-.07-.41-.24-.53-.19-.09-.42-.07-.59.05-.48.32-.79.85-.82,1.43h0Z"/>
        <path class="cls-13" d="m174.3,318.29l-.18.1v10.83l35.23-20.34.18-.1v-10.83l-35.23,20.34Zm34.52-9.91l-34,19.62v-2.52l34-19.62v2.52Zm-34,16.28v-5.86l34-19.62v5.86l-34,19.62Z"/>
        <path class="cls-22" d="m174.3,318.29l-.18.1v10.83l35.23-20.34.18-.1v-10.83l-35.23,20.34Zm34.52-9.91l-34,19.62v-2.52l34-19.62v2.52Zm-34,16.28v-5.86l34-19.62v5.86l-34,19.62Z"/>
        <polygon class="cls-10" points="212.07 303.57 223.63 296.9 223.63 300.23 212.07 306.91 212.07 303.57"/>
        <path class="cls-13" d="m217.72,301.22h0c.17,0,.19.2.19.29-.02.4-.23.78-.57,1-.06.04-.13.06-.2.06-.17,0-.19-.2-.19-.29.02-.4.23-.78.57-1,.06-.04.13-.06.2-.06m0-.18c-.1,0-.2.03-.29.09-.38.25-.62.67-.65,1.13,0,.3.14.47.36.47.1,0,.2-.04.29-.09.38-.25.62-.67.65-1.13,0-.3-.14-.47-.36-.47Z"/>
        <path class="cls-13" d="m214.72,302.97h0c.16,0,.18.21.18.29-.02.4-.23.77-.56,1-.06.04-.14.06-.21.07-.16,0-.18-.2-.18-.29.02-.4.23-.77.56-1,.06-.04.14-.06.21-.07m0-.17c-.11,0-.21.03-.3.09-.39.25-.63.67-.65,1.13,0,.29.15.47.36.47.1,0,.2-.03.29-.09.39-.25.64-.68.66-1.14,0-.29-.15-.46-.36-.46Z"/>
        <path class="cls-13" d="m220.72,299.5h0c.16,0,.18.2.18.29-.02.4-.23.77-.56,1-.06.04-.14.06-.21.07-.16,0-.18-.21-.18-.29.02-.4.22-.78.56-1,.06-.04.13-.07.21-.07m0-.18c-.1,0-.2.03-.29.09-.39.25-.64.68-.66,1.14,0,.29.15.46.36.46.11,0,.21-.04.3-.09.39-.25.63-.67.65-1.13,0-.29-.15-.47-.36-.47Z"/>
        <polygon class="cls-15" points="223.63 300.23 223.18 299.98 223.18 297.16 223.63 296.9 223.63 300.23"/>
        <polygon class="cls-11" points="212.07 306.91 212.07 306.4 223.18 299.98 223.63 300.23 212.07 306.91"/>
        <polygon class="cls-11" points="223.63 290.22 216.38 294.41 216.38 297.75 216.94 298.07 224.19 293.88 224.19 290.54 223.63 290.22"/>
        <polygon class="cls-17" points="224.19 293.88 224.19 290.54 216.94 294.73 216.94 298.07 224.19 293.88"/>
        <polygon class="cls-15" points="216.94 294.73 216.38 294.41 223.63 290.22 224.19 290.54 216.94 294.73"/>
        <path class="cls-13" d="m138.09,300.93l-8.67,5,.77.45,8.67-5-.77-.45Zm5.78,3.34l-8.67,5,.77.45,8.68-5-.78-.45Zm-2.89,8.34l.77.45,8.68-5-.78-.45-8.67,5Zm5.78-6.68l-8.67,5,.77.45,8.68-5-.78-.45h0Zm-17.34-10l-8.68,5,.78.44,8.67-5-.77-.44Zm5.78,3.34l-8.68,5,.78.44,8.67-5-.77-.44Zm-2.89-1.67l-8.68,5,.78.44,8.67-5-.77-.44Zm8.67,5l-8.67,5,.77.45,8.67-5-.77-.45Zm54.93-25l-8.67,5,.77.45,8.68-5-.78-.45Zm-2.89-1.67l-8.67,5,.77.45,8.68-5-.78-.45h0Zm-2.89-1.71l-8.67,5,.77.45,8.68-5-.78-.45Zm8.68,5l-8.68,5,.77.45,8.68-5-.77-.45h0Zm-17.35-10l-8.68,5,.78.44,8.67-5-.77-.44Zm-2.89-1.67l-8.68,5,.78.44,8.67-5-.77-.44h0Zm8.67,5l-8.67,5,.77.44,8.67-5-.77-.44Zm-2.89-1.67l-8.68,5,.78.44,8.67-5-.77-.44h0Z"/>
        <polygon class="cls-8" points="140.98 312.61 141.75 313.06 150.43 308.05 149.65 307.6 140.98 312.61"/>
        <polygon class="cls-8" points="138.09 310.94 138.86 311.39 147.54 306.38 146.76 305.93 138.09 310.94"/>
        <polygon class="cls-8" points="135.2 309.27 135.97 309.72 144.65 304.71 143.87 304.27 135.2 309.27"/>
        <polygon class="cls-8" points="132.31 307.6 133.08 308.05 141.75 303.04 140.98 302.6 132.31 307.6"/>
        <polygon class="cls-8" points="129.41 305.93 130.19 306.38 138.86 301.37 138.09 300.93 129.41 305.93"/>
        <polygon class="cls-8" points="126.52 304.27 127.3 304.71 135.97 299.7 135.2 299.26 126.52 304.27"/>
        <polygon class="cls-8" points="123.63 302.6 124.41 303.04 133.08 298.03 132.31 297.59 123.63 302.6"/>
        <polygon class="cls-8" points="120.74 300.93 121.52 301.37 130.19 296.36 129.41 295.92 120.74 300.93"/>
        <polygon class="cls-8" points="190.13 284.23 190.91 284.68 199.58 279.67 198.81 279.22 190.13 284.23"/>
        <polygon class="cls-8" points="187.24 282.56 188.01 283.01 196.69 278 195.91 277.56 187.24 282.56"/>
        <polygon class="cls-8" points="184.35 280.89 185.12 281.34 193.8 276.33 193.02 275.89 184.35 280.89"/>
        <polygon class="cls-8" points="181.46 279.22 182.23 279.67 190.91 274.66 190.13 274.22 181.46 279.22"/>
        <polygon class="cls-8" points="178.57 277.55 179.34 278 188.01 272.99 187.24 272.55 178.57 277.55"/>
        <polygon class="cls-8" points="175.68 275.89 176.45 276.33 185.12 271.33 184.35 270.88 175.68 275.89"/>
        <polygon class="cls-8" points="172.78 274.22 173.56 274.66 182.23 269.66 181.46 269.21 172.78 274.22"/>
        <polygon class="cls-8" points="169.89 272.55 170.67 272.99 179.34 267.99 178.57 267.54 169.89 272.55"/>
        <polygon class="cls-13" points="141.54 322.95 142.31 323.4 217.5 280 216.72 279.55 141.54 322.95"/>
        <polygon class="cls-13" points="102.56 300.45 103.33 300.89 178.52 257.49 177.74 257.05 102.56 300.45"/>
      </g>
      <polygon class="cls-14" points="134.45 364.25 73.22 328.9 73.22 272.34 134.45 307.69 134.45 364.25"/>
      <polygon class="cls-8" points="134.45 364.25 73.22 328.9 73.22 272.34 134.45 307.69 134.45 364.25"/>
      <polygon class="cls-18" points="138.45 300.08 138.45 367.16 134.45 369.47 134.45 302.39 138.45 300.08"/>
      <polygon class="cls-13" points="101.84 356.25 107.19 353.16 126.27 364.18 120.92 367.27 101.84 356.25"/>
      <polygon class="cls-8" points="101.84 356.25 107.19 353.16 126.27 364.18 120.92 367.27 101.84 356.25"/>
      <path class="cls-13" d="m126.27,364.22v-16.58c-1.68-1.09-2.74-2.92-2.84-4.92,0-1.81,1.27-2.54,2.85-1.64v-16.53l-19.08-11v39.61l19.07,11.06h0Z"/>
      <path class="cls-4" d="m126.27,364.22v-16.58c-1.68-1.09-2.74-2.92-2.84-4.92,0-1.81,1.27-2.54,2.85-1.64v-16.53l-19.08-11v39.61l19.07,11.06h0Z"/>
      <path class="cls-15" d="m121.31,366.16c-.3.15-.66.12-.93-.08l-17.79-10.27v-39.59l4.06-2.35,17.78,10.27c.77.5,1.26,1.33,1.31,2.25v36.62c.03.33-.11.65-.38.84,0,0-4.05,2.31-4.05,2.31Z"/>
      <path class="cls-11" d="m106.65,313.84l-4.06,2.38,17.79,10.26c.39.25.71.59.93,1l4-2.34c-.22-.41-.54-.75-.93-1l-17.73-10.3h0Z"/>
      <polygon class="cls-11" points="102.58 338.25 102.59 338.24 102.59 316.18 102.58 338.25"/>
      <path class="cls-12" d="m102.59,355.81l17.79,10.27c.72.41,1.3.07,1.3-.75v-36.62c-.05-.92-.54-1.75-1.3-2.26l-17.79-10.23v39.59h0Z"/>
      <polygon class="cls-10" points="111.19 316.46 111.48 316.62 107.42 318.97 107.13 318.8 111.19 316.46"/>
      <line class="cls-2" x1="110.71" y1="316.18" x2="111.19" y2="316.46"/>
      <polygon class="cls-10" points="107.13 358.43 107.13 356.66 105.76 355.87 105.47 355.7 105.47 355.37 105.47 319.94 105.47 319.61 105.76 319.77 107.13 320.57 107.13 318.8 107.42 318.97 107.42 320.74 107.42 321.07 107.13 320.9 105.76 320.11 105.76 355.53 107.14 356.33 107.42 356.5 107.42 356.82 107.42 356.83 107.42 358.6 107.13 358.43"/>
      <path class="cls-16" d="m109.17,346.95v-14.31c0-.28.2-.39.44-.25l7.26,4.19c.25.17.41.45.43.75v14.31c0,.28-.19.39-.43.25l-7.26-4.19c-.25-.17-.42-.45-.44-.75Z"/>
      <path class="cls-13" d="m109.6,347.7c-.25-.17-.41-.45-.43-.75v-14.31c0-.28.19-.39.43-.25l1.39.8v15.31l-1.39-.8Z"/>
      <path class="cls-7" d="m117.28,329.36v-1.76c0-1-1.81-2.8-4.06-4.1s-4.06-1.55-4.06-.58v7.12c.02.3.19.58.44.75l7.25,4.19c.24.13.44,0,.43-.25,0,0,0-5.37,0-5.37Z"/>
      <path class="cls-15" d="m117.28,334.73v-1.58c-.74-2.14-2.17-3.97-4.07-5.2-1.77-1-3.3-.75-4.06.51v1.58c.02.3.19.58.44.75l1.62.94,1,.59,2,1.13,1,.58,1.63.95c.25.13.45.02.44-.25Z"/>
      <path class="cls-16" d="m115.22,334.03c-.18-1.29-.91-2.44-2-3.15-1-.59-1.86-.2-2,.85l1,.59,2,1.13,1,.58Z"/>
      <path class="cls-14" d="m114.2,333.45c-.14-.58-.5-1.09-1-1.41-.46-.27-.85-.14-1,.28l2,1.13Z"/>
      <path class="cls-7" d="m109.17,354.93v1.76c0,1,1.82,2.81,4.06,4.1s4.06,1.56,4.06.59v-7.16c-.02-.3-.18-.58-.43-.75l-7.26-4.18c-.24-.14-.44,0-.43.25v5.39h0Z"/>
      <path class="cls-15" d="m109.17,349.57v1.57c.73,2.14,2.16,3.98,4.06,5.2,1.77,1,3.3.76,4.06-.5v-1.62c-.02-.3-.18-.58-.43-.75l-1.63-.93-1-.6-2-1.12-1-.59-1.63-.94c-.24-.07-.44,0-.43.28h0Z"/>
      <path class="cls-16" d="m111.23,350.22c.18,1.29.91,2.44,2,3.15,1,.59,1.86.21,2-.84l-1-.6-2-1.12-1-.59Z"/>
      <path class="cls-14" d="m112.25,350.85c.15.58.5,1.08,1,1.41.46.26.85.13,1-.29l-2-1.12Z"/>
      <path class="cls-13" d="m120.92,367.27v-16.54c-1.68-1.09-2.74-2.92-2.84-4.92,0-1.81,1.27-2.54,2.84-1.64v-16.53l-19.09-11v39.58l19.09,11.05h0Z"/>
      <path class="cls-8" d="m120.92,367.27v-16.54c-1.68-1.09-2.74-2.92-2.84-4.92,0-1.81,1.27-2.54,2.84-1.64v-16.53l-19.09-11v39.58l19.09,11.05h0Z"/>
      <polygon class="cls-13" points="101.83 316.63 107.19 313.54 126.27 324.55 120.91 327.64 101.83 316.63"/>
      <path class="cls-21" d="m122.72,355.82l2-1.16c.15-.1.24-.27.26-.45v-18.22c.01-.09-.04-.17-.13-.18-.05,0-.09,0-.13.03l-2,1.17c-.15.1-.25.27-.26.45v18.21c0,.17.11.24.26.15Z"/>
      <polygon class="cls-13" points="93.71 360.94 99.06 357.85 118.15 368.87 112.8 371.96 93.71 360.94"/>
      <polygon class="cls-8" points="93.71 360.94 99.06 357.85 118.15 368.87 112.8 371.96 93.71 360.94"/>
      <path class="cls-13" d="m118.15,368.87v-16.54c-1.68-1.09-2.74-2.92-2.84-4.92,0-1.81,1.27-2.54,2.84-1.64v-16.55l-19.08-11v39.61l19.08,11.04h0Z"/>
      <path class="cls-15" d="m113.18,370.85c-.3.15-.66.12-.93-.08l-17.78-10.27v-39.62l4.06-2.35,17.77,10.27c.77.5,1.26,1.33,1.31,2.25v36.62c.03.33-.11.64-.37.84l-4.06,2.34Z"/>
      <path class="cls-11" d="m98.53,318.53l-4.06,2.35,17.78,10.26c.39.25.71.59.93,1l4.06-2.34c-.22-.41-.54-.76-.94-1l-17.77-10.27h0Z"/>
      <polygon class="cls-11" points="94.46 342.94 94.47 342.93 94.47 320.88 94.46 342.94"/>
      <path class="cls-12" d="m94.47,360.5l17.78,10.27c.72.41,1.3.07,1.3-.75v-36.62c-.05-.92-.53-1.76-1.3-2.26l-17.78-10.26v39.62h0Z"/>
      <polygon class="cls-10" points="103.07 321.15 103.36 321.32 99.3 323.66 99 323.49 103.07 321.15"/>
      <line class="cls-2" x1="102.59" y1="320.87" x2="103.07" y2="321.15"/>
      <polygon class="cls-10" points="99.01 363.12 99.01 361.35 97.64 360.56 97.35 360.39 97.35 360.06 97.35 324.63 97.35 324.3 97.64 324.46 99.01 325.26 99.01 323.49 99.3 323.66 99.29 325.43 99.3 325.76 99.01 325.59 97.64 324.8 97.64 360.22 99.01 361.03 99.29 361.19 99.29 361.51 99.3 361.52 99.29 363.29 99.01 363.12"/>
      <path class="cls-16" d="m101.04,351.64v-14.31c0-.27.19-.39.43-.25l7.26,4.19c.25.17.42.45.44.75v14.31c0,.28-.2.39-.44.25l-7.26-4.19c-.25-.17-.41-.45-.43-.75Z"/>
      <path class="cls-13" d="m101.47,352.39c-.25-.17-.41-.45-.43-.75v-14.31c0-.27.19-.39.43-.25l1.39.8v15.34l-1.39-.83Z"/>
      <path class="cls-7" d="m109.16,334.05v-1.76c0-1-1.82-2.8-4.06-4.1s-4.06-1.55-4.06-.58v7.12c.01.31.17.59.43.75l7.26,4.19c.24.13.44,0,.43-.25,0,0,0-5.37,0-5.37Z"/>
      <path class="cls-15" d="m109.16,339.42v-1.58c-.73-2.14-2.16-3.98-4.06-5.2-1.77-1-3.3-.75-4.06.51v1.58c.01.31.17.59.43.75l1.63.94,1,.59,2,1.13,1,.59,1.63.94c.24.13.44.02.43-.25Z"/>
      <path class="cls-16" d="m107.1,338.73c-.19-1.29-.91-2.44-2-3.16-1-.59-1.86-.2-2,.85l1,.59,2,1.13,1,.59Z"/>
      <path class="cls-14" d="m106.08,338.14c-.14-.58-.5-1.09-1-1.41-.46-.27-.85-.14-1,.28l2,1.13Z"/>
      <path class="cls-7" d="m101.05,359.62v1.76c0,1,1.81,2.81,4.06,4.1s4.06,1.56,4.06.59v-7.13c-.04-.29-.2-.56-.45-.72l-7.25-4.18c-.24-.14-.44,0-.43.25v5.33h.01Z"/>
      <path class="cls-15" d="m101.05,354.22v1.57c.73,2.14,2.16,3.98,4.07,5.2,1.77,1,3.3.76,4.06-.5v-1.59c-.05-.28-.22-.53-.46-.68l-1.62-.93-1-.6-2-1.12-1-.59-1.63-.94c-.23-.17-.43-.06-.42.18h0Z"/>
      <path class="cls-16" d="m103.11,354.95c.18,1.29.91,2.44,2,3.15,1,.59,1.86.21,2-.84l-1-.6-2-1.12-1-.59Z"/>
      <path class="cls-14" d="m104.13,355.54c.14.58.5,1.09,1,1.41.47.26.86.13,1-.29l-2-1.12Z"/>
      <path class="cls-13" d="m112.8,371.96v-16.54c-1.69-1.08-2.74-2.92-2.84-4.92,0-1.81,1.26-2.54,2.84-1.64v-16.53l-19.08-11.01v39.62l19.08,11.02h0Z"/>
      <polygon class="cls-13" points="93.71 321.32 99.06 318.23 118.14 329.24 112.79 332.33 93.71 321.32"/>
      <polygon class="cls-6" points="93.71 321.32 99.06 318.23 118.14 329.24 112.79 332.33 93.71 321.32"/>
      <path class="cls-21" d="m114.59,360.51l2-1.16c.15-.1.25-.27.26-.45v-18.22c0-.16-.11-.23-.26-.15l-2,1.17c-.15.1-.25.27-.26.45v18.21c0,.17.12.24.26.15Z"/>
      <polygon class="cls-13" points="85.59 365.64 90.94 362.54 110.03 373.56 104.67 376.65 85.59 365.64"/>
      <polygon class="cls-8" points="85.59 365.64 90.94 362.54 110.03 373.56 104.67 376.65 85.59 365.64"/>
      <path class="cls-13" d="m110.02,373.56v-16.54c-1.69-1.08-2.74-2.92-2.84-4.92,0-1.81,1.26-2.54,2.84-1.64v-16.53l-19.08-11v39.62l19.08,11.01h0Z"/>
      <path class="cls-4" d="m110.02,373.56v-16.54c-1.69-1.08-2.74-2.92-2.84-4.92,0-1.81,1.26-2.54,2.84-1.64v-16.53l-19.08-11v39.62l19.08,11.01h0Z"/>
      <path class="cls-15" d="m105.06,375.54c-.3.15-.66.12-.93-.08l-17.79-10.24v-39.65l4.06-2.35,17.78,10.27c.77.5,1.26,1.33,1.31,2.25v36.62c.04.33-.11.65-.38.84,0,0-4.05,2.34-4.05,2.34Z"/>
      <path class="cls-11" d="m90.4,323.22l-4.06,2.35,17.79,10.26c.39.25.71.59.93,1l4-2.34c-.21-.41-.53-.76-.93-1l-17.73-10.27h0Z"/>
      <polygon class="cls-11" points="86.34 347.63 86.35 347.62 86.34 325.57 86.34 347.63"/>
      <path class="cls-12" d="m86.34,365.22l17.79,10.27c.72.41,1.3.08,1.3-.75v-36.65c-.05-.92-.54-1.75-1.3-2.26l-17.79-10.26v39.65h0Z"/>
      <polygon class="cls-10" points="94.94 325.84 95.23 326.01 91.17 328.35 90.88 328.18 94.94 325.84"/>
      <line class="cls-2" x1="94.46" y1="325.56" x2="94.94" y2="325.84"/>
      <polygon class="cls-10" points="90.89 367.81 90.88 366.04 89.51 365.25 89.22 365.09 89.22 364.75 89.22 329.32 89.22 328.99 89.52 329.15 90.88 329.95 90.88 328.18 91.17 328.35 91.17 330.12 91.17 330.45 90.88 330.28 89.51 329.49 89.52 364.91 90.89 365.72 91.17 365.88 91.17 366.2 91.17 366.21 91.17 367.98 90.89 367.81"/>
      <path class="cls-16" d="m92.92,356.33v-14.31c0-.27.19-.39.43-.25l7.26,4.19c.25.17.41.45.43.75v14.31c0,.28-.19.39-.43.25l-7.26-4.19c-.25-.17-.41-.45-.43-.75Z"/>
      <path class="cls-13" d="m93.35,357.08c-.25-.17-.41-.45-.43-.75v-14.31c0-.27.19-.39.43-.25l1.39.8v15.31l-1.39-.8Z"/>
      <path class="cls-7" d="m101.04,338.74v-1.76c0-1-1.82-2.8-4.07-4.1s-4.06-1.55-4.06-.58v7.12c.02.31.18.59.44.75l7.25,4.19c.24.13.44,0,.44-.25,0,0,0-5.37,0-5.37Z"/>
      <path class="cls-15" d="m101.04,344.11v-1.58c-.73-2.14-2.17-3.97-4.07-5.2-1.77-1-3.3-.75-4.06.51v1.58c.02.31.18.59.44.75l1.62.94,1,.59,2,1.13,1,.59,1.63.94c.24.13.44.02.44-.25Z"/>
      <path class="cls-16" d="m98.97,343.42c-.18-1.29-.91-2.44-2-3.15-1-.6-1.86-.21-2,.84l1,.59,2,1.13,1,.59Z"/>
      <path class="cls-14" d="m97.95,342.83c-.14-.58-.49-1.09-1-1.41-.47-.27-.85-.14-1,.28l2,1.13Z"/>
      <path class="cls-7" d="m92.92,364.32v1.75c0,1,1.82,2.81,4.06,4.1s4.06,1.56,4.06.59v-7.12c-.02-.31-.18-.59-.43-.76l-7.26-4.18c-.24-.14-.44,0-.43.25,0,0,0,5.37,0,5.37Z"/>
      <path class="cls-15" d="m92.92,358.95v1.57c.73,2.14,2.16,3.98,4.06,5.2,1.77,1,3.3.76,4.06-.5v-1.58c-.02-.31-.18-.59-.43-.76l-1.63-.93-1-.6-2-1.12-1-.59-1.63-.94c-.24-.14-.44-.02-.43.25h0Z"/>
      <path class="cls-16" d="m94.98,359.64c.19,1.29.91,2.43,2,3.15,1,.59,1.86.21,2-.84l-1-.6-2-1.12-1-.59Z"/>
      <path class="cls-14" d="m96,360.22c.15.58.5,1.08,1,1.41.46.26.85.13,1-.29l-2-1.12Z"/>
      <path class="cls-13" d="m104.72,376.65v-16.54c-1.68-1.09-2.74-2.92-2.84-4.92,0-1.81,1.27-2.54,2.84-1.64v-16.53l-19.09-11v39.62l19.09,11.01h0Z"/>
      <path class="cls-4" d="m104.72,376.65v-16.54c-1.68-1.09-2.74-2.92-2.84-4.92,0-1.81,1.27-2.54,2.84-1.64v-16.53l-19.09-11v39.62l19.09,11.01h0Z"/>
      <polygon class="cls-13" points="85.58 326.01 90.94 322.92 110.02 333.93 104.67 337.02 85.58 326.01"/>
      <g class="cls-23">
        <polygon class="cls-10" points="85.58 326.01 90.94 322.92 110.02 333.93 104.67 337.02 85.58 326.01"/>
      </g>
      <path class="cls-21" d="m106.47,365.22l2-1.16c.15-.1.24-.27.26-.45v-18.24c.01-.09-.04-.17-.13-.18-.05,0-.09,0-.13.03l-2,1.17c-.16.1-.25.27-.26.45v18.21c0,.17.11.24.26.17h0Z"/>
      <polygon class="cls-13" points="77.46 370.33 82.82 367.23 101.9 378.25 96.55 381.34 77.46 370.33"/>
      <polygon class="cls-8" points="77.46 370.33 82.82 367.23 101.9 378.25 96.55 381.34 77.46 370.33"/>
      <path class="cls-13" d="m101.9,378.22v-16.51c-1.68-1.09-2.74-2.92-2.84-4.92,0-1.81,1.27-2.54,2.84-1.64v-16.53l-19.09-11v39.6l19.09,11h0Z"/>
      <path class="cls-8" d="m101.9,378.22v-16.51c-1.68-1.09-2.74-2.92-2.84-4.92,0-1.81,1.27-2.54,2.84-1.64v-16.53l-19.09-11v39.6l19.09,11h0Z"/>
      <path class="cls-15" d="m96.93,380.22c-.3.15-.65.12-.92-.08l-17.79-10.26v-39.66l4.06-2.35,17.78,10.35c.77.5,1.26,1.33,1.31,2.25v36.62c.03.33-.11.65-.38.84l-4.06,2.29Z"/>
      <path class="cls-11" d="m82.28,327.91l-4.06,2.31,17.78,10.27c.4.24.72.59.94,1l4-2.34c-.22-.41-.54-.75-.93-1l-17.73-10.24Z"/>
      <polygon class="cls-11" points="78.21 352.32 78.22 352.31 78.22 330.26 78.21 352.32"/>
      <path class="cls-12" d="m78.22,369.88l17.79,10.27c.71.41,1.29.08,1.29-.75v-36.62c-.05-.91-.53-1.75-1.3-2.25l-17.78-10.31v39.66Z"/>
      <polygon class="cls-10" points="86.82 330.53 87.11 330.7 83.05 333.04 82.76 332.87 86.82 330.53"/>
      <line class="cls-2" x1="86.34" y1="330.25" x2="86.82" y2="330.53"/>
      <polygon class="cls-10" points="82.76 372.5 82.76 370.73 81.39 369.94 81.1 369.78 81.1 369.44 81.1 334.01 81.1 333.68 81.39 333.84 82.76 334.64 82.76 332.87 83.05 333.04 83.04 334.81 83.05 335.14 82.76 334.97 81.39 334.18 81.39 369.6 82.77 370.41 83.04 370.57 83.05 370.89 83.05 370.9 83.05 372.67 82.76 372.5"/>
      <path class="cls-16" d="m84.79,361.02v-14.31c-.02-.15.08-.29.22-.31.08-.01.16,0,.22.06l7.25,4.19c.25.17.42.45.44.75v14.31c0,.28-.2.39-.44.25l-7.25-4.19c-.25-.17-.42-.45-.44-.75Z"/>
      <path class="cls-13" d="m85.23,361.77c-.25-.17-.42-.45-.44-.75v-14.31c-.02-.15.08-.29.22-.31.08-.01.16,0,.22.06l1.38.8v15.31l-1.38-.8Z"/>
      <path class="cls-7" d="m92.91,343.43v-1.76c0-1-1.82-2.8-4.06-4.1s-4.06-1.55-4.06-.58v7.12c.01.31.17.59.43.75l7.26,4.19c.24.14.44,0,.43-.25,0,0,0-5.37,0-5.37Z"/>
      <path class="cls-15" d="m92.91,348.8v-1.58c-.74-2.14-2.17-3.97-4.07-5.2-1.77-1-3.3-.75-4.06.51v1.58c.01.31.17.59.43.75l1.63.94,1,.59,2,1.13,1,.59,1.63.94c.25.17.45.02.44-.25Z"/>
      <path class="cls-16" d="m90.85,348.11c-.18-1.29-.91-2.44-2-3.15-1-.6-1.87-.21-2,.84l1,.59,2,1.13,1,.59Z"/>
      <path class="cls-14" d="m89.83,347.52c-.14-.58-.5-1.09-1-1.41-.46-.27-.85-.14-1,.28l2,1.13Z"/>
      <path class="cls-7" d="m84.8,369.01v1.75c0,1,1.82,2.81,4.06,4.1s4.06,1.56,4.06.59v-7.12c-.02-.31-.18-.59-.44-.76l-7.25-4.18c-.24-.14-.44,0-.43.25,0,0,0,5.37,0,5.37Z"/>
      <path class="cls-15" d="m84.8,363.64v1.58c.73,2.14,2.17,3.97,4.07,5.2,1.77,1,3.3.76,4.06-.5v-1.58c-.02-.31-.18-.59-.44-.76l-1.62-.93-1-.6-2-1.12-1-.59-1.63-.94c-.25-.18-.45-.03-.44.24Z"/>
      <path class="cls-16" d="m86.86,364.33c.18,1.29.91,2.44,2,3.15,1,.59,1.87.21,2-.84l-1-.6-2-1.12-1-.59Z"/>
      <path class="cls-14" d="m87.88,364.92c.14.58.5,1.08,1,1.41.46.26.85.13,1-.29l-2-1.12Z"/>
      <path class="cls-13" d="m96.55,381.34v-16.54c-1.68-1.09-2.74-2.92-2.84-4.92,0-1.81,1.27-2.54,2.84-1.64v-16.53l-19.08-11v39.61l19.08,11.02h0Z"/>
      <path class="cls-8" d="m96.55,381.34v-16.54c-1.68-1.09-2.74-2.92-2.84-4.92,0-1.81,1.27-2.54,2.84-1.64v-16.53l-19.08-11v39.61l19.08,11.02h0Z"/>
      <polygon class="cls-13" points="77.46 330.7 82.81 327.61 101.9 338.62 96.54 341.71 77.46 330.7"/>
      <path class="cls-21" d="m98.34,369.89l2-1.16c.15-.1.24-.27.26-.45v-18.22c0-.16-.11-.23-.26-.15l-2,1.17c-.15.1-.25.27-.26.45v18.21c0,.17.12.24.26.15Z"/>
      <polygon class="cls-13" points="69.34 375.02 74.69 371.92 93.78 382.94 88.42 386.03 69.34 375.02"/>
      <polygon class="cls-8" points="69.34 375.02 74.69 371.92 93.78 382.94 88.42 386.03 69.34 375.02"/>
      <path class="cls-13" d="m93.78,382.94v-16.54c-1.68-1.09-2.74-2.92-2.84-4.92,0-1.81,1.27-2.54,2.84-1.64v-16.53l-19.06-11.01v39.62l19.06,11.02h0Z"/>
      <path class="cls-15" d="m88.81,384.92c-.3.15-.66.12-.93-.08l-17.79-10.27v-39.62l4.07-2.35,17.77,10.27c.77.5,1.26,1.33,1.31,2.25v36.62c.04.33-.11.65-.38.84,0,0-4.05,2.34-4.05,2.34Z"/>
      <path class="cls-11" d="m74.16,332.6l-4.07,2.35,17.79,10.27c.39.24.72.59.93,1l4-2.34c-.21-.41-.53-.76-.93-1l-17.72-10.28Z"/>
      <polygon class="cls-11" points="70.09 357.01 70.1 357 70.09 334.95 70.09 357.01"/>
      <path class="cls-12" d="m70.09,374.57l17.79,10.27c.72.41,1.3.08,1.3-.75v-36.62c-.05-.91-.53-1.75-1.3-2.25l-17.79-10.27v39.62Z"/>
      <polygon class="cls-10" points="78.69 335.22 78.99 335.39 74.92 337.73 74.63 337.56 78.69 335.22"/>
      <line class="cls-2" x1="78.21" y1="334.94" x2="78.69" y2="335.22"/>
      <polygon class="cls-10" points="74.64 377.19 74.63 375.42 73.27 374.63 72.97 374.47 72.97 374.13 72.97 338.71 72.97 338.37 73.27 338.53 74.64 339.33 74.63 337.56 74.93 337.73 74.92 339.5 74.93 339.83 74.63 339.66 73.27 338.87 73.27 374.29 74.64 375.1 74.92 375.26 74.92 375.58 74.93 375.59 74.92 377.36 74.64 377.19"/>
      <path class="cls-16" d="m76.72,365.71v-14.31c0-.27.19-.39.43-.25l7.26,4.19c.25.17.41.45.43.75v14.31c0,.28-.19.39-.43.25l-7.26-4.19c-.25-.17-.41-.45-.43-.75Z"/>
      <path class="cls-13" d="m77.1,366.46c-.25-.17-.41-.45-.43-.75v-14.31c0-.27.19-.39.43-.25l1.39.8v15.27l-1.39-.76h0Z"/>
      <path class="cls-7" d="m84.79,348.12v-1.76c0-1-1.82-2.8-4.06-4.1s-4.01-1.55-4.01-.58v7.12c0,.31.17.59.43.75l7.25,4.19c.25.14.44,0,.44-.25l-.05-5.37Z"/>
      <path class="cls-15" d="m84.79,353.49v-1.57c-.73-2.15-2.16-3.99-4.07-5.21-1.76-1-3.29-.75-4.06.51v1.58c0,.31.17.59.43.75l1.62.94,1,.59,2.01,1.14,1,.59,1.62.94c.26.13.45.01.45-.26Z"/>
      <path class="cls-16" d="m82.72,352.8c-.18-1.29-.91-2.44-2-3.15-1-.6-1.86-.21-2,.84l1,.59,2,1.14,1,.58Z"/>
      <path class="cls-14" d="m81.72,352.22c-.14-.58-.5-1.09-1-1.41-.47-.27-.85-.14-1,.28l2,1.13Z"/>
      <path class="cls-7" d="m76.72,373.7v1.75c0,1,1.82,2.81,4.06,4.1s4.06,1.56,4.06.59v-7.12c0-.31-.17-.59-.43-.76l-7.25-4.18c-.11-.1-.28-.08-.38.03-.05.06-.07.14-.06.22v5.37Z"/>
      <path class="cls-15" d="m76.72,368.33v1.57c.71,2.14,2.12,3.97,4,5.21,1.76,1,3.29.75,4.06-.51v-1.58c0-.31-.17-.59-.43-.76l-1.63-.93-1-.6-2-1.12-1-.59-1.63-.94c-.14-.06-.3.01-.35.15-.01.03-.02.07-.02.1Z"/>
      <path class="cls-16" d="m78.72,369.02c.17,1.31.9,2.48,2,3.2,1,.59,1.86.21,2-.84l-1-.6-2-1.17-1-.59Z"/>
      <path class="cls-14" d="m79.72,369.61c.14.58.5,1.09,1,1.41.47.26.85.13,1-.29l-2-1.12Z"/>
      <path class="cls-13" d="m88.42,386.03v-16.54c-1.69-1.08-2.74-2.92-2.84-4.92,0-1.81,1.26-2.54,2.84-1.64v-16.53l-19.08-11v39.62l19.08,11.01h0Z"/>
      <polygon class="cls-13" points="69.33 335.39 74.69 332.3 93.77 343.31 88.42 346.4 69.33 335.39"/>
      <polygon class="cls-6" points="69.33 335.39 74.69 332.3 93.77 343.31 88.42 346.4 69.33 335.39"/>
      <path class="cls-21" d="m90.22,374.58l2-1.16c.15-.1.24-.27.26-.45v-18.22c.01-.09-.04-.17-.13-.18-.05,0-.09,0-.13.03l-2,1.17c-.16.1-.25.27-.26.45v18.21c0,.17.12.24.26.15Z"/>
      <path class="cls-14" d="m79.72,396.62l3.64,2.36-2.87,1.66c-2.05,1.04-4.47,1.04-6.52,0l-29.1-16.8-25.63-14.79c-1.92-1.26-3.13-3.36-3.26-5.66v-59.55c.05-1.14.4-2.26,1-3.23l63.17,36.27-.43,59.74h0Z"/>
      <path class="cls-18" d="m77.21,339.22v59.56c0,2.08,1.47,2.92,3.27,1.88l207.79-120c1.93-1.26,3.14-3.35,3.26-5.65v-59.56c0-2.08-1.46-2.92-3.26-1.88l-207.79,120c-1.93,1.25-3.14,3.35-3.27,5.65Zm4.51,0c.12-.68.47-1.29,1-1.73l204.29-117.97v55.49c-.12.68-.47,1.3-1,1.74l-204.29,117.93v-55.46h0Z"/>
      <path class="cls-17" d="m16.94,300.61l61.32,35.22c.54-.94,1.3-1.73,2.22-2.3l207.79-120c1.51-.87,2.77-.42,3.16,1-.37-1.94-1.51-3.64-3.16-4.72l-54.71-31.59c-2.05-1.04-4.48-1.04-6.53,0L19.24,298.22c-.95.59-1.74,1.41-2.3,2.39h0Z"/>
    </g>
    <g id="freepik--TV--inject-86">
      <path id="freepik--shadow--inject-86-6" class="cls-14" d="m227.13,190.53l8.61,4.94c2,1.16,2,3.05,0,4.21l-65.35,37.73c-2,1.16-2,3,0,4.2l4.8,2.74c2,1.16,2,3,0,4.2l-36.26,20.94c-2.29,1.16-5,1.16-7.29,0l-4.8-2.73c-2.29-1.16-5-1.16-7.29,0l-65.67,37.91c-2.29,1.17-4.99,1.17-7.28,0l-8.61-4.94c-2-1.16-2-3,0-4.2l181.86-105c2.29-1.17,4.99-1.17,7.28,0h0Z"/>
      <path class="cls-15" d="m154.72,203.38l-25.74,14.84c-1.06.69-1.8,1.77-2.07,3l-6.4,36.2c-.16,1.19.38,2.35,1.39,3l11.58,6.64c1.09.55,2.37.55,3.46,0l35.46-20.47c1.59-.84,2.19-2.81,1.35-4.39-.3-.57-.77-1.04-1.35-1.35l-7.75-4.43c-1.04-.68-1.74-1.77-1.93-3l-2.84-27.2c-.17-1.19-.83-2.25-1.82-2.92-1.06-.51-2.3-.48-3.34.08h0Z"/>
      <path class="cls-22" d="m154.72,203.38l-25.74,14.84c-1.06.69-1.8,1.77-2.07,3l-6.4,36.2c-.16,1.19.38,2.35,1.39,3l11.58,6.64c1.09.55,2.37.55,3.46,0l35.46-20.47c1.59-.84,2.19-2.81,1.35-4.39-.3-.57-.77-1.04-1.35-1.35l-7.75-4.43c-1.04-.68-1.74-1.77-1.93-3l-2.84-27.2c-.17-1.19-.83-2.25-1.82-2.92-1.06-.51-2.3-.48-3.34.08h0Z"/>
      <path class="cls-15" d="m135.21,260.52v6.9c.6.01,1.2-.13,1.73-.41l35.46-20.47c1-.63,1.64-1.69,1.72-2.87-.04-.68-.27-1.33-.68-1.87h-5.8l-32.43,18.72h0Z"/>
      <path class="cls-15" d="m157.95,205.22l-25.73,14.89c-1.06.69-1.8,1.77-2.07,3l-5.8,32.8c-.16,1.18.38,2.35,1.38,3l7.75,4.43c1.09.55,2.37.55,3.46,0l35.46-20.48c.55-.18.86-.77.68-1.32-.1-.32-.36-.58-.68-.68l-7.75-4.43c-1.04-.68-1.74-1.77-1.93-3l-2.84-27.21c.04-.66-.46-1.22-1.12-1.26-.29-.02-.58.07-.81.26h0Z"/>
      <path class="cls-22" d="m157.95,205.22c.51-.41,1.26-.33,1.67.19.18.23.27.52.26.81l2.56,24.47-37.47,21.64,5.18-29.28c.27-1.23,1.01-2.31,2.07-3l25.73-14.83h0Z"/>
      <path class="cls-12" d="m172.4,240.8l-7.75-4.43c-.51-.32-.94-.76-1.26-1.27l-38.8,22.4c.24.55.63,1.02,1.14,1.34l7.75,4.43c1.09.55,2.37.55,3.46,0l35.46-20.48c.55-.19.84-.78.66-1.33-.1-.31-.35-.55-.66-.66h0Z"/>
      <path class="cls-12" d="m42.99,292.95l-.36-.21c-1.43-.93-2.32-2.49-2.42-4.19v-143.74c.1-1.7,1-3.26,2.43-4.18L227.38,34.4c1.52-.77,3.32-.77,4.84,0h0c1.43.93,2.33,2.49,2.42,4.19v143.73c-.09,1.7-.99,3.26-2.42,4.19l-184.39,106.44c-1.52.77-3.32.77-4.84,0Z"/>
      <path class="cls-11" d="m48.65,146.89l-7.73-4.46c-.44.72-.68,1.54-.71,2.38v143.74c.1,1.7.99,3.26,2.42,4.19l.36.21c1.52.77,3.32.77,4.84,0l.82-.47v-145.59h0Z"/>
      <path class="cls-13" d="m45.41,291.55v-143.73c.09-1.7.99-3.26,2.42-4.19L232.18,37.22c1.34-.78,2.42-.15,2.42,1.39v143.71c-.09,1.7-.99,3.26-2.42,4.19l-184.35,106.44c-1.34.77-2.42.15-2.42-1.4h0Z"/>
      <path class="cls-12" d="m234.6,38.58l.24,45.21.09,45.2.08,45.21v8.52c-.13,1.01-.52,1.98-1.13,2.8-.3.41-.66.78-1.07,1.09-.45.33-.84.51-1.25.76l-2.44,1.42-4.89,2.83-19.51,11.34-78.38,45.08-39.24,22.52-39.27,22.39,39-22.82,39.1-22.68,78.23-45.34,19.59-11.26,4.9-2.82,2.45-1.4c.4-.24.85-.47,1.17-.71.34-.26.64-.57.9-.91.53-.69.88-1.51,1-2.38v-8.41l.08-45.21.09-45.2.26-45.23h0Z"/>
      <path class="cls-14" d="m141.39,233.42l7.12-4.11c.53-.31,1-.09,1,.49-.06.66-.43,1.26-1,1.6l-7.12,4.12c-.54.3-1,.08-1-.49.05-.67.43-1.27,1-1.61Z"/>
      <path class="cls-15" d="m51.61,147L228.13,44.88c.76-.44,1.38-.08,1.38.8v129.54c-.05.97-.56,1.86-1.38,2.4l-176.52,101.91c-.77.44-1.39.08-1.39-.8v-129.33c.05-.98.57-1.87,1.39-2.4h0Z"/>
      <path class="cls-11" d="m50.99,279.97c-.17,0-.34-.04-.49-.12-.37-.25-.57-.68-.53-1.12v-129.33c.05-1.06.62-2.03,1.51-2.61h0L228,44.67c.47-.38,1.16-.3,1.53.17.19.23.27.53.23.83v129.55c-.05,1.06-.61,2.04-1.51,2.61l-176.53,101.92c-.22.14-.47.21-.73.22Zm.73-132.75c-.74.49-1.2,1.3-1.26,2.18v129.33c-.07.33.13.66.46.73.19.04.39,0,.54-.14l176.54-101.92c.74-.49,1.2-1.3,1.26-2.18V45.68c.08-.32-.11-.65-.43-.73-.2-.05-.42,0-.57.15L51.72,147.22Z"/>
      <path class="cls-17" d="m223.51,79.62c-.21.12-.38,0-.38-.36v-21.68l-14.08,8.13c-.2.12-.37,0-.37-.36,0-.31.13-.6.37-.79l14.46-8.34c.21-.12.37,0,.37.36v22.26c0,.3-.14.59-.37.78Z"/>
      <path class="cls-17" d="m56.22,176.22c-.2.12-.37,0-.37-.36v-22.28c0-.31.13-.6.37-.79l14.5-8.34c.21-.12.37,0,.37.36,0,.31-.13.6-.37.79l-14.08,8.13v21.68c0,.32-.16.62-.42.81Z"/>
      <path class="cls-17" d="m223.51,171.62l-14.46,8.35c-.2.12-.37,0-.37-.36,0-.31.13-.6.37-.8l14.08-8.12v-21.68c0-.31.14-.61.38-.8.21-.12.37,0,.37.36v22.26c0,.31-.13.6-.37.79Z"/>
      <path class="cls-17" d="m70.72,259.86l-14.5,8.36c-.2.12-.37,0-.37-.36v-22.27c0-.31.13-.6.37-.8.21-.11.38.05.38.37v21.67l14.12-8.13c.21-.12.37,0,.37.37,0,.31-.13.6-.37.79Z"/>
      <path class="cls-17" d="m63.02,164.63v-7.36l2.29-1.32c.2-.16.5-.14.68.05.21.24.32.57.29.89v1.86c0,.42-.1.84-.29,1.22-.13.34-.37.63-.68.83l-1.64.95v2.47c0,.14-.03.27-.09.4-.05.11-.13.21-.23.28-.07.06-.16.06-.23,0-.07-.07-.1-.17-.1-.27h0Zm.65-3.88l1.64-.94c.1-.07.18-.17.23-.28.06-.13.09-.26.09-.4v-1.91c0-.1-.02-.21-.09-.29-.07-.06-.16-.06-.23,0l-1.64,1v2.82h0Z"/>
      <path class="cls-17" d="m67.38,162.61v-7.39c0-.14.03-.28.1-.41.05-.11.12-.2.22-.27.07-.06.16-.06.23,0,.07.08.11.19.1.3v6.38l2.28-1.32c.07-.06.16-.06.23,0,.07.08.11.18.1.29,0,.14-.03.28-.1.41-.04.12-.12.22-.23.28l-2.93,1.73h0Z"/>
      <path class="cls-17" d="m71.72,159.39l1.3-7.55c.02-.22.14-.42.32-.55.16-.1.27,0,.31.13l1.28,6.16v.14c0,.14-.03.28-.09.41-.04.11-.12.2-.21.27-.17.09-.28.03-.33-.18l-.25-1.2-1.48.85-.28,1.61c-.01.08-.05.16-.1.23-.04.08-.11.15-.18.2-.1.05-.18.05-.24,0-.07-.09-.1-.2-.09-.31,0-.07.02-.14.04-.21h0Zm1.62-5.8l-.55,3.16,1.09-.63s-.54-2.53-.54-2.53Z"/>
      <path class="cls-17" d="m78.06,152.68v3.27c0,.14-.03.28-.1.41-.05.11-.13.21-.23.27-.07.06-.16.06-.23,0-.07-.08-.11-.18-.1-.29v-3.27l-1.29-1.78v-1.07c0-.14.03-.28.09-.41.04-.12.12-.22.23-.28.07-.06.16-.06.23,0,.08.08.11.19.1.3v.68l1,1.36,1-2.48v-.69c0-.14.03-.28.1-.41.04-.12.12-.22.22-.29.07-.05.16-.05.23,0,.08.09.11.2.1.32v1l-1.35,3.36h0Z"/>
      <path class="cls-17" d="m63.83,240.29l1.3-7.55c.02-.22.14-.43.32-.56.16-.09.27,0,.31.14l1.28,6.16v.14c0,.14-.03.28-.09.4-.04.11-.11.21-.21.27-.17.1-.28,0-.33-.17l-.25-1.2-1.48.85-.28,1.61c-.02.08-.05.16-.1.23-.04.08-.1.14-.18.19-.07.06-.17.06-.24,0-.07-.08-.1-.19-.09-.3,0-.07.02-.14.04-.21Zm1.62-5.8l-.55,3.16,1.09-.63s-.54-2.53-.54-2.53Z"/>
      <path class="cls-17" d="m69.47,232.95v-.25l-.67-1.08v6c0,.14-.03.28-.1.4-.04.12-.12.21-.22.28-.07.06-.16.06-.23,0-.07-.08-.11-.18-.1-.29v-7.39l.84-.48.79,1.33.82-2.26.82-.47v7.36c0,.14-.03.28-.1.41-.04.12-.12.22-.23.28-.07.06-.16.06-.23,0-.07-.08-.1-.19-.09-.29v-6l-.66,1.79v.28c0,.14-.03.28-.09.41-.05.11-.13.2-.23.27-.07.06-.16.06-.23,0-.07-.08-.1-.19-.09-.3h0Z"/>
      <path class="cls-17" d="m77.19,232.22l1-.57v-5.86l-1,.56c-.07.06-.16.06-.23,0-.07-.08-.1-.19-.09-.3,0-.14.03-.27.09-.4.05-.11.13-.21.23-.28l1.62-.94v6.86l.65-.37v-2.07c0-.14.03-.28.09-.41.05-.11.13-.21.23-.28.07-.06.16-.06.23,0,.07.08.1.19.09.29v2.57c0,.14-.03.28-.09.41-.05.11-.13.21-.23.28l-2.6,1.5c-.07.06-.16.06-.23,0-.07-.08-.11-.19-.1-.3,0-.14.03-.28.1-.4.05-.12.13-.22.24-.29Z"/>
      <path class="cls-17" d="m84.17,229.22l-2.93,1.69v-3.43c0-.28.06-.56.19-.82.09-.23.25-.42.45-.56l2-1.13v-2.42l-2.3,1.33c-.1.05-.17.05-.23,0-.08-.08-.11-.19-.1-.3,0-.14.03-.28.1-.4.04-.12.12-.22.23-.28l2.3-1.33c.13-.11.33-.11.46,0,.15.16.22.37.2.59v2.42c0,.29-.07.57-.2.83-.09.23-.25.42-.46.55l-2,1.14v2.43l2.29-1.31c.07-.06.16-.06.23,0,.07.08.11.18.1.29,0,.14-.04.28-.1.41-.05.12-.13.22-.23.3Z"/>
      <path class="cls-17" d="m86.9,221.09l.65-.37c.07-.06.16-.06.23,0,.07.08.11.18.1.28v.86c0,.14-.03.28-.1.4-.05.11-.12.21-.22.28l-.67.38c-.06.05-.16.05-.22,0-.07-.08-.1-.19-.09-.3v-.86c0-.14.03-.28.09-.41.05-.1.13-.19.23-.26Zm0,3.44l.65-.38c.07-.05.16-.05.23,0,.08.08.11.19.1.3v.85c0,.14-.03.28-.1.41-.04.11-.12.21-.22.28l-.67.38c-.06.06-.16.06-.22,0-.07-.08-.1-.19-.09-.29v-.86c0-.14.03-.28.09-.41.05-.11.13-.21.23-.28h0Z"/>
      <path class="cls-17" d="m92.89,224.22l-2.93,1.7v-3.43c0-.28.06-.56.19-.82.09-.23.24-.43.45-.56l2-1.13v-2.42l-2.31,1.33c-.07.06-.16.06-.23,0-.07-.09-.1-.19-.09-.3,0-.14.03-.28.09-.41.05-.11.13-.21.23-.28l2.31-1.33c.13-.11.33-.11.46,0,.14.16.21.38.19.59v2.42c0,.28-.06.56-.19.82-.09.23-.25.42-.46.56l-2,1.13v2.44l2.29-1.31c.07-.06.16-.06.23,0,.07.08.1.19.09.3,0,.14-.03.28-.09.41-.05.12-.13.22-.23.29Z"/>
      <path class="cls-17" d="m97.57,214.63v1.87c0,.41-.08.83-.26,1.2.19.24.29.54.27.85v1.94c0,.28-.07.56-.19.81-.09.23-.25.42-.46.56l-2.29,1.36c-.06.05-.16.05-.22,0-.07-.08-.11-.19-.1-.3,0-.14.03-.28.1-.41.05-.11.12-.21.22-.28l2.28-1.31v-1.94c.01-.11-.02-.22-.1-.3-.06-.07-.13-.07-.22,0l-1.3.75c-.07.06-.16.06-.23,0-.07-.08-.1-.19-.09-.3,0-.14.03-.28.09-.41.05-.11.13-.21.23-.27l1.3-.76c.1-.06.18-.16.23-.27.07-.13.1-.27.1-.41v-1.92l-2.31,1.33c-.07.06-.16.06-.23,0-.07-.08-.1-.19-.09-.29,0-.14.03-.28.09-.41.05-.11.13-.21.23-.28l2.31-1.33c.13-.11.32-.11.45,0,.12.14.19.33.19.52h0Z"/>
      <path class="cls-17" d="m65.11,249.34v-.25l-.67-1.08v6c0,.14-.03.28-.1.41-.04.11-.12.21-.22.28-.07.06-.16.06-.23,0-.07-.08-.11-.18-.1-.29v-7.37l.84-.48.79,1.32.82-2.25.82-.47v7.36c0,.14-.03.28-.1.41-.05.12-.13.22-.24.29-.07.06-.16.06-.23,0-.07-.08-.1-.19-.09-.29v-6l-.66,1.8v.28c0,.14-.03.27-.09.4-.05.11-.13.21-.23.28-.07.06-.16.06-.23,0-.08-.1-.11-.23-.08-.35h0Z"/>
      <path class="cls-17" d="m68.19,251.64l1.3-7.55c.02-.22.14-.42.32-.55.16-.1.26-.05.31.14l1.28,6.15v.14c0,.14-.03.28-.09.41-.05.11-.12.2-.22.27-.16.09-.27,0-.32-.18l-.25-1.2-1.48.85-.28,1.61c-.02.09-.05.17-.1.24-.04.08-.11.14-.18.19-.1.05-.18.05-.24,0-.07-.09-.1-.2-.09-.31,0-.07.02-.14.04-.21h0Zm1.62-5.8l-.56,3.16,1.1-.63-.54-2.53Z"/>
      <path class="cls-17" d="m74.49,244.93v3.29c0,.14-.04.28-.1.41-.05.11-.13.21-.23.28-.07.06-.16.06-.23,0-.08-.08-.11-.19-.1-.3v-3.27l-1.3-1.78v-1.05c0-.15.04-.29.1-.42.04-.12.12-.22.23-.28.07-.06.16-.06.23,0,.07.08.11.19.1.3v.68l1,1.36,1-2.48v-.69c0-.14.03-.28.1-.41.04-.11.12-.21.22-.28.07-.06.16-.06.23,0,.07.09.11.2.09.31v1l-1.34,3.33h0Z"/>
      <path class="cls-17" d="m81.23,243.84v-5.95c0-.27.06-.54.18-.78.09-.22.24-.41.44-.54l2-1.16c.13-.11.31-.11.44,0,.13.16.2.36.18.57v5.94c0,.27-.06.54-.18.78-.09.22-.24.41-.44.54l-2,1.16c-.13.11-.31.11-.44,0-.13-.16-.2-.36-.18-.56h0Zm2.61-1.55v-5.86l-2,1.14v5.86l2-1.14Z"/>
      <path class="cls-17" d="m85.59,235.36v-.42c0-.14.03-.28.09-.41.05-.11.13-.21.23-.28l2.93-1.69v3.06c0,.16-.04.33-.12.47l-1.19,2.24v2.32c0,.14-.03.28-.09.41-.04.12-.12.22-.23.28-.07.06-.16.06-.23,0-.07-.08-.11-.18-.1-.29v-2.51c0-.18.04-.35.11-.51l1.2-2.24v-1.85l-2,1.13c0,.24-.12.47-.32.61-.07.06-.16.06-.23,0-.06-.1-.08-.21-.05-.32h0Z"/>
      <path class="cls-17" d="m94.62,236.07l1-.57v-5.86l-1,.56c-.07.06-.16.06-.23,0-.07-.08-.11-.19-.1-.3,0-.14.04-.28.1-.41.05-.11.13-.21.23-.27l1.62-.94v6.85l.64-.37v-2.07c0-.14.04-.28.1-.4.04-.12.12-.22.23-.28.07-.06.16-.06.23,0,.07.08.1.19.09.3v2.57c0,.14-.03.27-.09.4-.05.11-.13.21-.23.28l-2.61,1.5c-.06.06-.16.07-.23,0h0c-.07-.08-.1-.19-.09-.3,0-.14.03-.27.09-.4.05-.12.14-.22.25-.29Z"/>
      <path class="cls-17" d="m101.61,233.02l-.32.18c-.07.06-.16.06-.23,0-.08-.08-.11-.19-.1-.3,0-.14.03-.28.1-.4.04-.12.12-.22.23-.28v-3.28l-2.28,1.28c-.07.06-.16.06-.23,0-.07-.08-.1-.19-.09-.29v-2.58c0-.14.03-.27.09-.4.05-.11.13-.21.23-.28l2.6-1.5c.07-.06.16-.06.23,0,.07.09.1.19.09.3v6.85c0,.14-.03.28-.09.41-.05.12-.13.22-.23.29h0Zm-.32-5.1v-1.56l-2,1.13v1.56l2-1.13Z"/>
      <path class="cls-17" d="m105.97,230.5l-.33.19c-.06.05-.16.05-.22,0-.07-.08-.11-.18-.1-.29,0-.14.03-.28.1-.41.05-.11.12-.21.22-.28v-3.28l-2.27,1.31c-.07.06-.16.06-.23,0-.07-.08-.1-.19-.09-.3v-2.58c0-.14.03-.27.09-.4.05-.11.13-.21.23-.28l2.6-1.5c.06-.05.16-.05.22,0,.07.08.11.18.1.29v6.86c0,.14-.03.28-.09.4-.05.11-.13.2-.23.27Zm-.32-5.1v-1.56l-2,1.13v1.56l2-1.13Z"/>
      <path class="cls-17" d="m109.51,227.97v-2.07l-2,1.12v-4.8c0-.15.04-.29.1-.42.05-.11.14-.21.24-.28.06-.05.16-.05.22,0,.08.08.11.19.1.3v3.78l1.29-.74v-2.92c0-.14.03-.28.09-.41.05-.11.13-.21.23-.28.07-.06.16-.06.23,0,.07.08.1.19.09.3v2.91c.07-.06.16-.06.23,0,.08.08.11.18.1.29,0,.14-.03.28-.1.41-.05.11-.13.21-.23.28v2.08c0,.14-.03.28-.09.41-.05.11-.13.2-.23.27-.07.06-.16.06-.23,0-.04-.07-.05-.15-.04-.23Z"/>
      <path class="cls-17" d="m199.17,82.46v.44c0,.14-.03.28-.1.41-.04.12-.12.22-.22.29l-2.61,1.5c-.07.06-.16.06-.23,0-.07-.08-.1-.19-.09-.3v-.44c0-.14.03-.28.09-.41.05-.11.13-.21.23-.27l2.61-1.51c.07-.04.15-.04.22,0,.07.08.11.18.1.29Z"/>
      <path class="cls-17" d="m203.53,79.95v.44c0,.14-.04.28-.1.41-.05.11-.13.21-.23.28l-2.6,1.5c-.07.06-.16.06-.23,0-.07-.09-.1-.2-.09-.31v-.44c0-.14.03-.27.09-.4.05-.11.13-.21.23-.28l2.6-1.5c.07-.06.16-.06.23,0,.08.08.11.19.1.3Z"/>
      <path class="cls-17" d="m205.93,75.95l.65-.37c.07-.06.16-.06.23,0,.07.08.11.18.1.28v.86c0,.14-.03.28-.1.4-.04.11-.12.21-.22.28l-.66.38c-.07.06-.16.06-.23,0-.07-.08-.1-.19-.09-.3v-.86c0-.14.03-.28.1-.4.05-.11.12-.2.22-.27Zm0,3.44l.65-.38c.07-.05.16-.05.23,0,.08.08.11.19.1.3v.91c0,.14-.04.28-.1.41-.04.11-.12.21-.22.28l-.66.38c-.07.06-.16.06-.23,0-.07-.08-.1-.19-.09-.29v-.86c0-.14.03-.28.1-.41.03-.14.11-.26.22-.34Z"/>
      <path class="cls-17" d="m212.25,74.91v.44c0,.14-.04.28-.1.41-.04.12-.12.22-.23.29l-2.6,1.5c-.07.06-.16.06-.23,0-.07-.08-.1-.19-.09-.3v-.44c0-.14.03-.28.09-.41.05-.11.13-.21.23-.27l2.6-1.51c.07-.05.16-.05.23,0,.07.08.11.18.1.29Z"/>
      <path class="cls-17" d="m216.6,72.4v.44c0,.14-.03.28-.09.41-.05.11-.13.21-.23.28l-2.6,1.5c-.07.06-.16.06-.23,0-.07-.09-.11-.2-.1-.31v-.44c0-.14.04-.28.1-.4.05-.11.13-.21.23-.28l2.6-1.5c.06-.05.16-.05.22,0,.08.08.12.19.1.3h0Z"/>
    </g>
  </g>
</svg>